<svg width="250" height="242" viewBox="0 0 250 242" fill="none" xmlns="http://www.w3.org/2000/svg">
<path d="M48.3348 201.355C50.5657 224.901 59.7989 238.263 64.1366 242C33.2767 242 8.52057 214.903 0 201.355L0.330601 0L49 88.5C48.0705 115.129 46.104 177.809 48.3348 201.355Z" fill="url(#paint0_linear_1_880)"/>
<path d="M201.326 201.355C199.096 224.901 189.862 238.263 185.525 242C216.385 242 241.141 214.903 249.661 201.355L250 0L200.732 90.2541C201.662 116.883 203.557 177.809 201.326 201.355Z" fill="url(#paint1_linear_1_880)"/>
<path d="M130.918 242L0.330597 0H57.194L130.918 138.852L189.434 0H250L130.918 242Z" fill="url(#paint2_linear_1_880)"/>
<defs>
<linearGradient id="paint0_linear_1_880" x1="32.0683" y1="-1.07904e-09" x2="32" y2="121" gradientUnits="userSpaceOnUse">
<stop stop-color="white"/>
<stop offset="1" stop-color="#DCD8D8"/>
</linearGradient>
<linearGradient id="paint1_linear_1_880" x1="217.593" y1="-1.34797e-07" x2="217.661" y2="121" gradientUnits="userSpaceOnUse">
<stop stop-color="white"/>
<stop offset="1" stop-color="#DCD8D8"/>
</linearGradient>
<linearGradient id="paint2_linear_1_880" x1="121" y1="175.5" x2="121.415" y2="242" gradientUnits="userSpaceOnUse">
<stop stop-color="white"/>
<stop offset="1" stop-color="#DCD8D8"/>
</linearGradient>
</defs>
</svg>
